<?xml version="1.0" encoding="UTF-8"?>
<svg width="148px" height="54px" viewBox="0 0 148 54" version="1.1" xmlns="http://www.w3.org/2000/svg" xmlns:xlink="http://www.w3.org/1999/xlink">
  <g>
    <path d="M122.41,26.92a1.78,1.78,0,0,0-2.51.15,6.77,6.77,0,0,1-5,2.29h-1a6.94,6.94,0,0,1-6.83-7V19.38a6.94,6.94,0,0,1,6.83-7h1a6.74,6.74,0,0,1,5,2.28,1.78,1.78,0,1,0,2.65-2.37,10.3,10.3,0,0,0-7.68-3.46h-1a10.5,10.5,0,0,0-10.39,10.58v2.95a10.49,10.49,0,0,0,10.39,10.58h1a10.33,10.33,0,0,0,7.7-3.48,1.78,1.78,0,0,0-.15-2.51" style="fill: #4a4944"/>
    <path d="M94.85,19.47l-8.3-1.66a2.49,2.49,0,0,1-2-2,2.42,2.42,0,0,1,1.13-2.54,5.88,5.88,0,0,1,3.07-.88H92a5.39,5.39,0,0,1,4,2.2,1.77,1.77,0,0,0,2.48.4,1.78,1.78,0,0,0,.4-2.48A8.87,8.87,0,0,0,92,8.8H88.77a9.43,9.43,0,0,0-4.93,1.4,5.93,5.93,0,0,0-2.77,6.19,6.05,6.05,0,0,0,4.78,4.9L94.15,23a2.85,2.85,0,0,1,2.27,2.26,2.8,2.8,0,0,1-1.14,2.92,6.68,6.68,0,0,1-3.86,1.23H88.74a6.77,6.77,0,0,1-5-2.29A1.78,1.78,0,1,0,81,29.43a10.33,10.33,0,0,0,7.7,3.48h2.68A10.2,10.2,0,0,0,97.33,31a6.44,6.44,0,0,0-2.48-11.56" style="fill: #4a4944"/>
    <path d="M73.13,19.08H63.61a1.78,1.78,0,0,0,0,3.55h9.52a3.73,3.73,0,0,0,3.73-3.73A10.13,10.13,0,0,0,66.72,8.8H65.16A10.13,10.13,0,0,0,55,18.9v3.87A10.15,10.15,0,0,0,65.16,32.91h2.75a10.1,10.1,0,0,0,7.65-3.49,1.78,1.78,0,1,0-2.68-2.33,6.58,6.58,0,0,1-5,2.27H65.16a6.6,6.6,0,0,1-6.58-6.59V18.9a6.58,6.58,0,0,1,6.58-6.55h1.56a6.58,6.58,0,0,1,6.59,6.55.18.18,0,0,1-.18.18" style="fill: #4a4944"/>
    <path d="M51.4,29.36a5.82,5.82,0,0,1-3.07-.87,2.4,2.4,0,0,1-1.17-2.21V1.78a1.78,1.78,0,1,0-3.55,0v8a9.26,9.26,0,0,0-4.24-1H37.6a1.78,1.78,0,1,0,0,3.55h1.77a5.7,5.7,0,0,1,3.06.88,2.39,2.39,0,0,1,1.18,2.21V26.28a5.93,5.93,0,0,0,2.85,5.23,9.37,9.37,0,0,0,4.94,1.4,1.78,1.78,0,0,0,0-3.55" style="fill: #4a4944"/>
    <path d="M35.33,29.36a5.81,5.81,0,0,1-3.06-.87,2.43,2.43,0,0,1-1.17-2.21V10.58a1.78,1.78,0,0,0-3.56,0v15.7a5.94,5.94,0,0,0,2.86,5.23,9.34,9.34,0,0,0,4.93,1.4,1.78,1.78,0,1,0,0-3.55" style="fill: #4a4944"/>
    <path d="M21.17,8.91A1.78,1.78,0,0,0,18.89,10L12.05,28.75a.89.89,0,0,1-.87.61h0a.89.89,0,0,1-.87-.61L3.45,10A1.78,1.78,0,0,0,.11,11.19L7,30a4.44,4.44,0,0,0,4.2,2.94h0A4.44,4.44,0,0,0,15.39,30l6.84-18.78a1.76,1.76,0,0,0-1.06-2.28" style="fill: #4a4944"/>
    <path d="M146.22,17.6a1.78,1.78,0,0,0-1.77,1.78v2.95a6.94,6.94,0,0,1-6.83,7h-1a6.94,6.94,0,0,1-6.83-7V19.38a7,7,0,0,1,6.83-7H140a1.78,1.78,0,1,0,0-3.55h-3.36a10.5,10.5,0,0,0-10.38,10.58v2.95a10.49,10.49,0,0,0,10.38,10.58h1A10.49,10.49,0,0,0,148,22.33V19.38a1.78,1.78,0,0,0-1.78-1.78" style="fill: #4a4944"/>
    <polygon points="18.94 44.04 15.88 44.04 15.88 52.25 14.24 52.25 14.24 44.04 11.17 44.04 11.17 42.58 18.94 42.58 18.94 44.04" style="fill: #4a4944"/>
    <polygon points="29.59 50.85 29.59 52.25 22.52 52.25 22.52 42.58 29.47 42.58 29.47 43.98 24.17 43.98 24.17 46.55 28.99 46.55 28.99 47.96 24.17 47.96 24.17 50.85 29.59 50.85" style="fill: #4a4944"/>
    <path d="M34.93,51.89a4.29,4.29,0,0,1-1.56-1.8,6.57,6.57,0,0,1,0-5.31A4.26,4.26,0,0,1,34.94,43a4.34,4.34,0,0,1,2.31-.62,4.62,4.62,0,0,1,2,.4,3.6,3.6,0,0,1,1.41,1.14,3.5,3.5,0,0,1,.65,1.73h-1.6a2.27,2.27,0,0,0-.8-1.35,2.43,2.43,0,0,0-1.55-.48,2.68,2.68,0,0,0-1.54.44,2.72,2.72,0,0,0-1,1.26,4.81,4.81,0,0,0-.34,1.9,5,5,0,0,0,.34,1.94,2.77,2.77,0,0,0,1,1.28,2.62,2.62,0,0,0,1.54.45A2.34,2.34,0,0,0,39,50.51a2.66,2.66,0,0,0,.77-1.6h1.59a4.38,4.38,0,0,1-.65,1.94,3.47,3.47,0,0,1-1.41,1.25,4.63,4.63,0,0,1-2,.43,4.32,4.32,0,0,1-2.32-.64" style="fill: #4a4944"/>
    <polygon points="52.86 42.58 52.86 52.25 51.21 52.25 51.21 47.89 46.78 47.89 46.78 52.25 45.14 52.25 45.14 42.58 46.78 42.58 46.78 46.44 51.21 46.44 51.21 42.58 52.86 42.58" style="fill: #4a4944"/>
    <polygon points="65.01 42.58 65.01 52.25 63.3 52.25 58.87 45.22 58.87 52.25 57.27 52.25 57.27 42.58 58.95 42.58 63.41 49.65 63.41 42.58 65.01 42.58" style="fill: #4a4944"/>
    <path d="M70.65,51.89A4.48,4.48,0,0,1,69,50.08a5.91,5.91,0,0,1-.59-2.68A5.69,5.69,0,0,1,69,44.77,4.43,4.43,0,0,1,70.65,43a4.78,4.78,0,0,1,4.71,0A4.39,4.39,0,0,1,77,44.77a5.57,5.57,0,0,1,.6,2.63,5.71,5.71,0,0,1-.6,2.67,4.55,4.55,0,0,1-6.35,1.82m3.9-1.26a3,3,0,0,0,1-1.29,4.87,4.87,0,0,0,.36-1.94,4.6,4.6,0,0,0-.36-1.88,2.89,2.89,0,0,0-1-1.26A2.78,2.78,0,0,0,73,43.82a2.65,2.65,0,0,0-1.53.45,2.84,2.84,0,0,0-1,1.25,4.6,4.6,0,0,0-.36,1.88,4.87,4.87,0,0,0,.36,1.94,2.84,2.84,0,0,0,1,1.29,2.65,2.65,0,0,0,1.53.45,2.7,2.7,0,0,0,1.54-.45" style="fill: #4a4944"/>
    <polygon points="87.28 50.8 87.28 52.25 80.77 52.25 80.77 42.58 82.41 42.58 82.41 50.8 87.28 50.8" style="fill: #4a4944"/>
    <path d="M91.62,51.89A4.48,4.48,0,0,1,90,50.08a5.91,5.91,0,0,1-.59-2.68A5.69,5.69,0,0,1,90,44.77,4.43,4.43,0,0,1,91.62,43a4.78,4.78,0,0,1,4.71,0A4.32,4.32,0,0,1,98,44.77a5.57,5.57,0,0,1,.6,2.63,5.71,5.71,0,0,1-.6,2.67,4.35,4.35,0,0,1-4,2.45,4.47,4.47,0,0,1-2.35-.63m3.9-1.26a3,3,0,0,0,1-1.29,4.86,4.86,0,0,0,.37-1.94,4.6,4.6,0,0,0-.37-1.88,2.89,2.89,0,0,0-1-1.26A2.78,2.78,0,0,0,94,43.82a2.65,2.65,0,0,0-1.53.45,2.84,2.84,0,0,0-1,1.25,4.6,4.6,0,0,0-.36,1.88,4.87,4.87,0,0,0,.36,1.94,2.84,2.84,0,0,0,1,1.29,2.65,2.65,0,0,0,1.53.45,2.7,2.7,0,0,0,1.54-.45" style="fill: #4a4944"/>
    <path d="M110.09,47.05v5.2H109l-.32-1.19a3,3,0,0,1-1.17,1,3.8,3.8,0,0,1-1.73.37,4.41,4.41,0,0,1-2.31-.62,4.3,4.3,0,0,1-1.61-1.76,6,6,0,0,1-.58-2.68,5.86,5.86,0,0,1,.57-2.66A4.14,4.14,0,0,1,103.44,43a4.65,4.65,0,0,1,2.41-.62,5,5,0,0,1,2,.37,3.47,3.47,0,0,1,1.41,1.08,3.53,3.53,0,0,1,.7,1.67l-1.61.11a2,2,0,0,0-.81-1.34,2.74,2.74,0,0,0-1.62-.46,2.9,2.9,0,0,0-1.63.44,2.78,2.78,0,0,0-1,1.25,4.91,4.91,0,0,0-.35,1.92,5,5,0,0,0,.35,1.93,2.92,2.92,0,0,0,1,1.28,3,3,0,0,0,2.89.16,2.39,2.39,0,0,0,.94-.85,3.35,3.35,0,0,0,.49-1.33v-.16H106v-1.4Z" style="fill: #4a4944"/>
    <rect x="114.18" y="42.58" width="1.64" height="9.67" style="fill: #4a4944"/>
    <polygon points="126.92 50.85 126.92 52.25 119.86 52.25 119.86 42.58 126.8 42.58 126.8 43.98 121.5 43.98 121.5 46.55 126.33 46.55 126.33 47.96 121.5 47.96 121.5 50.85 126.92 50.85" style="fill: #4a4944"/>
    <path d="M130.65,51.66a3.34,3.34,0,0,1-1.14-2.48h1.6a2,2,0,0,0,.7,1.49,2.71,2.71,0,0,0,1.74.5,2.68,2.68,0,0,0,1.57-.39,1.26,1.26,0,0,0,.54-1.09,1.17,1.17,0,0,0-.18-.67,1.46,1.46,0,0,0-.56-.46,4.27,4.27,0,0,0-1-.33l-1.57-.36a3.87,3.87,0,0,1-1.88-.92,2.25,2.25,0,0,1-.66-1.69,2.79,2.79,0,0,1,.4-1.48,2.75,2.75,0,0,1,1.19-1,4.27,4.27,0,0,1,1.92-.38,4.88,4.88,0,0,1,1.95.36,3.1,3.1,0,0,1,1.3,1.06,3.17,3.17,0,0,1,.54,1.63h-1.58a1.8,1.8,0,0,0-.68-1.26,2.43,2.43,0,0,0-1.54-.45,2.31,2.31,0,0,0-1.38.37,1.2,1.2,0,0,0-.51,1,1,1,0,0,0,.34.79,2.44,2.44,0,0,0,1.06.47l1.82.42a4.22,4.22,0,0,1,2,1,2.38,2.38,0,0,1,.71,1.8,2.85,2.85,0,0,1-.43,1.54,2.88,2.88,0,0,1-1.29,1,5.17,5.17,0,0,1-2.09.38,4.43,4.43,0,0,1-2.88-.85" style="fill: #4a4944"/>
  </g>
</svg>
